<svg width="105" height="75" viewBox="0 0 105 75" fill="none" xmlns="http://www.w3.org/2000/svg">
<path d="M12.54 74.6157C11.5805 72.1426 10.6733 69.896 9.8883 67.6145C9.78363 67.2836 10.15 66.6044 10.4989 66.3432C14.1274 63.6263 17.5292 60.6482 19.8669 56.7123C20.9659 54.8662 21.6986 52.7937 22.5011 50.7909C22.7104 50.2685 22.6057 49.6067 22.6406 48.9623C21.0357 48.6836 19.5354 48.4746 18.0526 48.1612C7.53322 45.8449 1.07855 38.06 0.65987 27.3145C0.485419 22.8213 0.9041 18.4151 2.4916 14.1657C5.84105 5.21397 13.6041 0.111166 23.5652 0.285323C35.9861 0.494312 44.7784 8.19206 47.1858 20.923C51.3029 42.7275 38.2016 65.7511 17.3373 73.3791C15.8371 73.9364 14.2321 74.1977 12.54 74.6157Z" fill="#0F2B46"/>
<path d="M68.9736 74.6507C67.9444 71.9512 66.9849 69.4956 66.0429 67.0226C72.1835 62.2681 77.9404 57.322 79.2837 48.9625C77.9229 48.7535 76.8414 48.6316 75.7946 48.4226C71.7823 47.6389 68.049 46.2456 64.8217 43.6681C59.8324 39.6625 57.6518 34.2636 57.1633 28.0636C56.797 23.2917 57.268 18.5894 58.9602 14.0788C62.3096 5.19675 70.0378 0.128772 79.9466 0.285514C91.9837 0.477087 100.828 7.63495 103.305 19.7911C106.393 34.9951 102.538 48.5271 92.4721 60.2653C87.4479 66.117 81.3771 70.5928 74.0676 73.24C72.4626 73.8321 70.7879 74.163 68.9736 74.6507Z" fill="#0F2B46"/>
</svg>
